<svg width="78" height="79" viewBox="0 0 78 79" fill="none" xmlns="http://www.w3.org/2000/svg">
<path d="M34.9294 14.6372H47.1413L60.5337 1.20409C60.9121 0.822554 61.3623 0.519722 61.8584 0.313061C62.3544 0.106399 62.8865 0 63.4239 0C63.9612 0 64.4933 0.106399 64.9893 0.313061C65.4854 0.519722 65.9356 0.822554 66.314 1.20409L76.8163 11.7471C77.5744 12.5097 78 13.5415 78 14.6169C78 15.6923 77.5744 16.724 76.8163 17.4867L67.4945 26.8491H34.9294V34.9904C34.9294 36.07 34.5005 37.1054 33.7371 37.8688C32.9737 38.6322 31.9383 39.0611 30.8587 39.0611C29.7791 39.0611 28.7437 38.6322 27.9803 37.8688C27.2169 37.1054 26.7881 36.07 26.7881 34.9904V22.7785C26.7881 20.6193 27.6458 18.5485 29.1726 17.0217C30.6994 15.495 32.7701 14.6372 34.9294 14.6372ZM10.5055 34.9904V51.273L1.18371 60.5948C0.425552 61.3575 0 62.3892 0 63.4646C0 64.54 0.425552 65.5717 1.18371 66.3344L11.686 76.8774C12.0644 77.2589 12.5146 77.5617 13.0107 77.7684C13.5067 77.9751 14.0388 78.0815 14.5761 78.0815C15.1135 78.0815 15.6456 77.9751 16.1416 77.7684C16.6377 77.5617 17.0879 77.2589 17.4663 76.8774L34.9294 59.4143H51.2119C52.2915 59.4143 53.3269 58.9854 54.0903 58.222C54.8537 57.4586 55.2826 56.4233 55.2826 55.3437V51.273H59.3532C60.4328 51.273 61.4682 50.8441 62.2316 50.0807C62.995 49.3174 63.4239 48.282 63.4239 47.2024V43.1317H67.4945C68.5741 43.1317 69.6095 42.7029 70.3729 41.9395C71.1363 41.1761 71.5651 40.1407 71.5651 39.0611V34.9904H43.0706V39.0611C43.0706 41.2203 42.2129 43.291 40.6861 44.8178C39.1593 46.3446 37.0886 47.2024 34.9294 47.2024H26.7881C24.6289 47.2024 22.5581 46.3446 21.0313 44.8178C19.5045 43.291 18.6468 41.2203 18.6468 39.0611V26.8491L10.5055 34.9904Z" fill="#FA6E12"/>
</svg>
