<svg width="63" height="78" viewBox="0 0 63 78" fill="none" xmlns="http://www.w3.org/2000/svg">
<path d="M47.1 48.75C47.1 53.04 45.93 62.4 38.52 73.32L35.4 54.6L38.91 47.19C36.57 47.19 34.23 46.8 31.5 46.8C28.77 46.8 26.43 47.19 24.09 47.19L27.6 54.6L24.48 73.32C17.07 62.79 15.9 53.04 15.9 48.75C6.53999 51.48 0.299988 56.55 0.299988 62.4V78H62.7V62.4C62.7 56.55 56.46 51.48 47.1 48.75ZM8.09999 9.75C8.09999 4.29 18.63 0 31.5 0C44.37 0 54.9 4.29 54.9 9.75C54.9 11.31 54.12 12.48 52.95 13.65C49.44 10.14 41.25 7.8 31.5 7.8C21.75 7.8 13.56 10.14 10.05 13.65C8.87999 12.48 8.09999 11.31 8.09999 9.75ZM46.71 21.06C47.1 21.84 47.1 22.62 47.1 23.4C47.1 31.98 40.08 39 31.5 39C22.92 39 15.9 31.98 15.9 23.4C15.9 22.62 15.9 21.84 16.29 21.06C20.19 22.62 25.65 23.4 31.5 23.4C37.35 23.4 42.81 22.62 46.71 21.06ZM49.44 15.99C45.15 17.94 38.91 19.5 31.5 19.5C24.09 19.5 17.85 17.94 13.56 15.99C16.29 13.65 22.92 11.7 31.5 11.7C40.08 11.7 46.71 13.65 49.44 15.99Z" fill="#FA6E12"/>
</svg>
