<svg width="79" height="78" viewBox="0 0 79 78" fill="none" xmlns="http://www.w3.org/2000/svg">
<path d="M49.3091 38.3315C45.8608 40.1749 42.8746 42.7982 40.635 45.9533L34.4495 34.1484L20.6208 47.8676L21.8295 56.73L18.0969 60.4877L11.8046 49.1792L0.5 42.94L4.26822 39.1823L13.0844 40.4231L26.9131 26.5976L0.5 12.843L5.51244 7.84458L38.2177 15.36L52.0463 1.56994C52.539 1.07261 53.1258 0.677756 53.7726 0.408263C54.4195 0.138769 55.1135 0 55.8146 0C56.5156 0 57.2096 0.138769 57.8565 0.408263C58.5033 0.677756 59.0901 1.07261 59.5828 1.56994C61.6446 3.66149 61.6446 7.10013 59.5828 9.08533L45.7541 22.8754L49.3091 38.3315ZM77.9973 65.238C78.3528 65.238 78.3528 65.5925 77.9973 65.947L74.4423 71.9735C74.0868 72.328 73.7314 72.328 73.3759 72.328L69.11 70.91C68.0435 71.619 67.3325 71.9735 66.266 72.6825L65.555 77.291C65.555 77.6455 65.1995 78 64.8441 78H57.7342C57.3787 78 57.0232 77.6455 56.6677 77.291L55.9568 72.6825C54.8903 72.328 53.8238 71.619 53.1128 70.91L48.8469 72.6825C48.4914 72.6825 48.1359 72.6825 47.7804 72.328L44.2255 66.3015C43.87 65.947 44.2255 65.5925 44.581 65.238L48.4914 62.402V58.857L44.581 56.021C44.2255 55.6665 44.2255 55.312 44.2255 54.9575L47.7804 48.9311C48.1359 48.5766 48.4914 48.5766 48.8469 48.5766L53.1128 50.3491C54.1793 49.6401 54.8903 49.2856 55.9568 48.5766L56.6677 43.9681C56.6677 43.6136 57.0232 43.2591 57.7342 43.2591H64.8441C65.1995 43.2591 65.555 43.6136 65.555 43.9681L66.266 48.5766C67.3325 48.9311 68.399 49.6401 69.4655 50.3491L73.7314 48.5766C74.0869 48.5766 74.7978 48.5766 74.7978 48.9311L78.3528 54.9575C78.7082 55.312 78.3528 55.6665 77.9973 56.021L74.0869 58.857V62.402L77.9973 65.238ZM66.266 60.275C66.266 57.439 63.7776 54.9575 60.9336 54.9575C58.0897 54.9575 55.6013 57.439 55.6013 60.275C55.6013 63.111 58.0897 65.5925 60.9336 65.5925C63.7776 65.5925 66.266 63.111 66.266 60.275Z" fill="#FA6E12"/>
</svg>
