<svg width="69" height="58" viewBox="0 0 69 58" fill="none" xmlns="http://www.w3.org/2000/svg">
<path d="M9.74951 32.8345V41.967C9.74951 44.3395 11.0495 46.5495 13.1295 47.687L29.3795 56.5595C31.3295 57.632 33.6695 57.632 35.6195 56.5595L51.8695 47.687C53.9495 46.5495 55.2495 44.3395 55.2495 41.967V32.8345L35.6195 43.5595C33.6695 44.632 31.3295 44.632 29.3795 43.5595L9.74951 32.8345ZM29.3795 1.43955L1.98202 16.3895C-0.260485 17.6245 -0.260485 20.8745 1.98202 22.1095L29.3795 37.0595C31.3295 38.132 33.6695 38.132 35.6195 37.0595L61.7495 22.792V41.9995C61.7495 43.787 63.212 45.2495 64.9995 45.2495C66.787 45.2495 68.2495 43.787 68.2495 41.9995V21.167C68.2495 19.9645 67.5995 18.892 66.5595 18.307L35.6195 1.43955C34.6593 0.927427 33.5878 0.659546 32.4995 0.659546C31.4113 0.659546 30.3397 0.927427 29.3795 1.43955Z" fill="#FA6E12"/>
</svg>
