<svg width="155" height="78" viewBox="0 0 155 78" fill="none" xmlns="http://www.w3.org/2000/svg">
<path d="M78.4693 31.6171C78.6576 28.2779 78.7683 23.9735 78.7683 19.2809C78.7683 8.63092 78.2035 0 77.4946 0C76.7968 0 76.2319 8.63092 76.2319 19.2809C76.2319 23.9735 76.3427 28.2668 76.5199 31.6171H78.4693Z" fill="#FA6E12"/>
<path d="M95.7256 49.7887C95.7256 60.472 87.5626 69.1362 77.4945 69.1362C67.4264 69.1362 59.2634 60.472 59.2634 49.7887C59.2634 39.1055 67.4264 39.0611 77.4945 39.0611C87.5626 39.0611 95.7256 39.1055 95.7256 49.7887Z" fill="#FA6E12"/>
<path d="M90.0103 35.9216C87.1748 32.5823 82.7334 30.4191 77.7159 30.4191C72.8536 30.4191 68.5118 32.4603 65.6763 35.6442C68.6336 34.5016 72.8314 33.4255 77.4944 33.4255C82.534 33.4255 87.0419 34.6791 90.0103 35.9216Z" fill="#FA6E12"/>
<path d="M63.8046 39.416C62.8078 41.2797 62.2429 43.3654 62.2429 45.573C62.2429 53.3164 69.1765 59.6066 77.7272 59.6066C86.2778 59.6066 93.2114 53.3275 93.2114 45.573C93.2114 43.3876 92.6576 41.313 91.6718 39.4715C88.925 39.183 83.6085 38.2955 77.4946 38.2955C71.724 38.3066 66.6733 39.0943 63.8046 39.416Z" fill="#FA6E12"/>
<path d="M91.6719 38.8837C91.2178 38.0184 90.6529 37.2086 90.0105 36.4542C89.1687 36.0992 88.1941 35.7442 87.1197 35.4225V38.3401C88.9805 38.5509 90.5422 38.7728 91.6719 38.8837Z" fill="#FA6E12"/>
<path d="M65.6764 36.1769C64.9453 36.9978 64.314 37.8853 63.8045 38.8394C64.8789 38.7173 66.2634 38.5287 67.8805 38.3401V35.4225C67.083 35.6665 66.3409 35.9106 65.6764 36.1769Z" fill="#FA6E12"/>
<path d="M77.5276 33.9579V37.7187C80.8615 37.7187 83.9739 37.9849 86.5435 38.2733V35.2559C83.9739 34.5126 80.8726 33.969 77.5276 33.9579Z" fill="#FA6E12"/>
<path d="M68.4454 35.2559V38.2734C70.8932 38.0072 73.8062 37.752 76.9629 37.7187V33.9691C73.8173 34.0245 70.8932 34.557 68.4454 35.2559Z" fill="#FA6E12"/>
<path d="M78.3918 70.4675C78.3918 70.9556 77.993 71.355 77.4946 71.355C77.0073 71.355 76.6085 70.9556 76.6085 70.4675V69.5911C76.6085 69.103 77.0073 68.7036 77.4946 68.7036C77.9819 68.7036 78.3918 69.103 78.3918 69.5911V70.4675Z" fill="#FA6E12"/>
<path d="M77.7383 72.4423C77.7383 72.9304 77.6276 73.3298 77.4947 73.3298C77.3618 73.3298 77.2621 72.9304 77.2621 72.4423V71.5659C77.2621 71.0778 77.3618 70.6784 77.4947 70.6784C77.6276 70.6784 77.7383 71.0778 77.7383 71.5659V72.4423Z" fill="#FA6E12"/>
<path d="M77.7383 73.9399C77.7383 74.4281 77.6276 74.8274 77.4947 74.8274C77.3618 74.8274 77.2621 74.4281 77.2621 73.9399V73.0635C77.2621 72.5754 77.3618 72.176 77.4947 72.176C77.6276 72.176 77.7383 72.5754 77.7383 73.0635V73.9399Z" fill="#FA6E12"/>
<path d="M77.9377 73.2631C78.4251 73.2631 78.8238 73.3741 78.8238 73.4961C78.8238 73.6292 78.4251 73.729 77.9377 73.729H77.0627C76.5754 73.729 76.1766 73.6181 76.1766 73.4961C76.1766 73.363 76.5754 73.2631 77.0627 73.2631H77.9377Z" fill="#FA6E12"/>
<path d="M76.4645 76.1363C76.4645 77.168 75.6338 78 74.6037 78C73.5737 78 72.743 77.168 72.743 76.1363V73.2186C72.743 72.1869 73.5737 71.3549 74.6037 71.3549C75.6338 71.3549 76.4645 72.1869 76.4645 73.2186V76.1363Z" fill="#FA6E12"/>
<path d="M82.2572 76.1363C82.2572 77.168 81.4154 78 80.3964 78C79.3663 78 78.5356 77.168 78.5356 76.1363V73.2186C78.5356 72.1869 79.3663 71.3549 80.3964 71.3549C81.4265 71.3549 82.2572 72.1869 82.2572 73.2186V76.1363Z" fill="#FA6E12"/>
<path d="M119.893 37.4081C110.756 37.2861 100.787 37.1973 91.6497 37.153L92.9566 40.7473C101.673 40.7917 109.925 40.8694 118.631 40.9803C118.653 39.649 119.118 38.4176 119.893 37.4081Z" fill="#FA6E12"/>
<path d="M154.107 40.2922V39.5822C146.863 39.4158 139.62 37.6963 132.376 37.5743C132.298 37.6187 132.21 37.663 132.143 37.7074C132.808 38.6837 133.196 39.8374 133.196 41.0688C133.196 41.1021 133.196 41.1354 133.196 41.1687C140.151 41.2907 147.129 40.1258 154.107 40.2922Z" fill="#FA6E12"/>
<path d="M130.371 45.7172C131.723 44.5746 132.576 42.9216 132.576 41.0689C132.576 39.8264 132.188 38.6727 131.523 37.7075C133.019 36.8755 135.079 35.4555 137.25 33.7138C141.226 30.5299 144.084 27.4902 143.629 26.9133C143.175 26.3365 139.576 28.4554 135.599 31.6393C133.384 33.4143 131.512 35.1449 130.371 36.4318C129.186 35.4333 127.636 34.8232 125.93 34.8232C124.822 34.8232 123.781 35.0783 122.873 35.5332C122.109 33.9911 120.724 31.8057 119.007 29.476C115.973 25.3824 113.037 22.4093 112.45 22.8419C111.863 23.2746 113.846 26.9577 116.881 31.0513C118.564 33.3366 120.226 35.2669 121.466 36.4539C120.137 37.5966 119.295 39.2385 119.295 41.0689C119.295 42.3225 119.694 43.4874 120.37 44.4747C118.852 45.2957 116.704 46.76 114.411 48.5905C110.435 51.7744 107.577 54.8252 108.031 55.3909C108.485 55.9678 112.085 53.8489 116.061 50.665C118.398 48.7902 120.337 46.9819 121.455 45.6728C122.541 46.6047 123.958 47.1927 125.531 47.2814C125.299 48.9566 125.144 52.4622 125.144 56.5336C125.144 60.4386 125.288 63.8333 125.498 65.575C125.177 65.7081 124.933 66.0298 124.933 66.3959V67.2723C124.933 67.6939 125.221 68.0156 125.598 68.1155C125.587 68.2042 125.587 68.2819 125.587 68.3817V69.2581C125.587 69.369 125.598 69.4689 125.598 69.5687C125.587 69.6686 125.587 69.7684 125.587 69.8794V70.079H125.387C125.155 70.079 124.944 70.1012 124.789 70.1456V70.0347C124.789 69.003 123.958 68.1709 122.928 68.1709C121.898 68.1709 121.068 69.003 121.068 70.0347V72.9523C121.068 73.984 121.898 74.8161 122.928 74.8161C123.958 74.8161 124.789 73.984 124.789 72.9523V70.4895C124.944 70.5339 125.155 70.5561 125.387 70.5561H125.587V70.7558C125.587 71.2439 125.697 71.6433 125.819 71.6433C125.952 71.6433 126.052 71.2439 126.052 70.7558V70.5561H126.251C126.484 70.5561 126.694 70.5339 126.849 70.4895V72.9523C126.849 73.984 127.68 74.8161 128.71 74.8161C129.74 74.8161 130.571 73.984 130.571 72.9523V70.0347C130.571 69.003 129.74 68.1709 128.71 68.1709C127.68 68.1709 126.849 69.003 126.849 70.0347V70.1456C126.694 70.1123 126.484 70.079 126.251 70.079H126.052V69.8904C126.052 69.7795 126.041 69.6797 126.041 69.5798C126.052 69.48 126.052 69.3801 126.052 69.2692V68.3928C126.052 68.3041 126.041 68.2153 126.041 68.1265C126.417 68.0267 126.705 67.6939 126.705 67.2834V66.407C126.705 66.0298 126.473 65.7081 126.14 65.5861C126.351 63.8333 126.495 60.4386 126.495 56.5447C126.495 52.4955 126.34 48.9899 126.107 47.3147C127.159 47.2814 128.145 47.0374 129.02 46.5936C129.751 48.1356 131.191 50.432 132.996 52.8727C136.031 56.9663 138.966 59.9394 139.553 59.5067C140.14 59.0741 138.158 55.3909 135.123 51.2974C133.373 48.9011 131.634 46.8931 130.371 45.7172ZM125.941 44.7188C123.803 44.7188 122.076 43.088 122.076 41.08C122.076 39.0721 123.803 37.4413 125.941 37.4413C128.079 37.4413 129.818 39.0721 129.818 41.08C129.807 43.088 128.079 44.7188 125.941 44.7188Z" fill="#FA6E12"/>
<path d="M125.941 37.9738C124.113 37.9738 122.64 39.3716 122.64 41.0801C122.64 42.7996 124.113 44.1863 125.941 44.1863C127.768 44.1863 129.253 42.7885 129.253 41.0801C129.242 39.3605 127.768 37.9738 125.941 37.9738Z" fill="#FA6E12"/>
<path d="M35.0955 37.4078C44.2332 37.2858 54.2127 37.197 63.3504 37.1526L62.0434 40.747C53.3266 40.7914 45.075 40.869 36.3582 40.98C36.336 39.6487 35.8708 38.4173 35.0955 37.4078Z" fill="#FA6E12"/>
<path d="M0.892883 40.2922V39.5822C8.13659 39.4158 15.3803 37.6963 22.624 37.5743C22.7015 37.6187 22.7791 37.663 22.8566 37.7074C22.192 38.6837 21.8044 39.8374 21.8044 41.0688C21.8044 41.1021 21.8154 41.1354 21.8154 41.1687C14.8376 41.2907 7.85969 40.1258 0.892883 40.2922Z" fill="#FA6E12"/>
<path d="M19.8329 51.3084C16.7981 55.413 14.8155 59.0851 15.4025 59.5177C15.9895 59.9504 18.9247 56.9884 21.9595 52.8837C23.7649 50.432 25.1937 48.1467 25.9358 46.6046C26.7997 47.0373 27.7965 47.2924 28.8377 47.3257C28.6162 49.012 28.4611 52.5065 28.4611 56.5557C28.4611 60.4607 28.6051 63.8554 28.8155 65.5971C28.4832 65.7302 28.2506 66.0519 28.2506 66.418V67.2944C28.2506 67.7049 28.5386 68.0377 28.9152 68.1376C28.9152 68.2263 28.9041 68.304 28.9041 68.4038V69.2802C28.9041 69.3911 28.9152 69.491 28.9263 69.5908C28.9263 69.6796 28.9152 69.7794 28.9152 69.8904V70.09H28.7158C28.4832 70.09 28.2728 70.1122 28.1177 70.1566V70.0457C28.1177 69.014 27.287 68.1819 26.257 68.1819C25.2269 68.1819 24.3962 69.014 24.3962 70.0457V72.9633C24.3962 73.995 25.2269 74.8271 26.257 74.8271C27.287 74.8271 28.1177 73.995 28.1177 72.9633V70.5005C28.2728 70.5449 28.4832 70.5671 28.7158 70.5671H28.9152V70.7668C28.9152 71.2549 29.026 71.6543 29.1589 71.6543C29.2918 71.6543 29.3915 71.2549 29.3915 70.7668V70.5671H29.5908C29.8234 70.5671 30.0339 70.5449 30.2 70.5005V72.9633C30.2 73.995 31.0307 74.8271 32.0608 74.8271C33.0909 74.8271 33.9216 73.995 33.9216 72.9633V70.0457C33.9216 69.014 33.0909 68.1819 32.0608 68.1819C31.0307 68.1819 30.2 69.014 30.2 70.0457V70.1566C30.045 70.1233 29.8345 70.09 29.5908 70.09H29.3915V69.8904C29.3915 69.7794 29.3804 69.6796 29.3804 69.5797C29.3915 69.4799 29.3915 69.38 29.3915 69.2691V68.3927C29.3915 68.304 29.3804 68.2152 29.3804 68.1265C29.757 68.0266 30.045 67.6938 30.045 67.2833V66.4069C30.045 66.0297 29.8124 65.708 29.4801 65.586C29.6905 63.8332 29.8345 60.4385 29.8345 56.5446C29.8345 52.4732 29.6794 48.9565 29.4469 47.2924C31.0086 47.2037 32.4374 46.6268 33.5228 45.6838C34.6415 46.9929 36.5798 48.8012 38.9168 50.676C42.8931 53.8599 46.4928 55.9788 46.9469 55.402C47.401 54.8251 44.5434 51.7854 40.5672 48.6015C38.2855 46.771 36.1257 45.2956 34.6193 44.4857C35.295 43.5095 35.6937 42.3446 35.6937 41.0799C35.6937 39.2495 34.8519 37.6076 33.5228 36.465C34.7633 35.2779 36.4137 33.3476 38.1083 31.0623C41.1431 26.9687 43.1257 23.2856 42.5387 22.853C41.9516 22.4092 39.0165 25.3823 35.9817 29.487C34.2649 31.8167 32.8804 34.0021 32.1162 35.5442C31.1969 35.0893 30.1557 34.8342 29.0481 34.8342C27.3424 34.8342 25.7918 35.4443 24.6066 36.4428C23.4658 35.1559 21.594 33.4253 19.3788 31.6503C15.4025 28.4664 11.8028 26.3475 11.3487 26.9243C10.8946 27.5012 13.7411 30.5409 17.7284 33.7248C19.8993 35.4665 21.9595 36.8865 23.4547 37.7185C22.7902 38.6948 22.4025 39.8485 22.4025 41.0799C22.4025 42.9215 23.2554 44.5745 24.6066 45.7282C23.3551 46.8931 21.6161 48.901 19.8329 51.3084ZM25.1826 41.0799C25.1826 39.072 26.9215 37.4412 29.0592 37.4412C31.1969 37.4412 32.9358 39.072 32.9358 41.0799C32.9358 43.0879 31.1969 44.7187 29.0592 44.7187C26.9215 44.7187 25.1826 43.0879 25.1826 41.0799Z" fill="#FA6E12"/>
<path d="M29.0592 37.9736C30.8867 37.9736 32.3598 39.3714 32.3598 41.0799C32.3598 42.7994 30.8756 44.1861 29.0592 44.1861C27.2316 44.1861 25.7474 42.7883 25.7474 41.0799C25.7474 39.3603 27.2316 37.9736 29.0592 37.9736Z" fill="#FA6E12"/>
</svg>
