<svg width="19" height="26" viewBox="0 0 19 26" fill="none" xmlns="http://www.w3.org/2000/svg">
<path d="M9.42382 0.513672C14.6284 0.513672 18.8477 4.73286 18.8477 9.93751C18.8477 11.6781 18.507 13.4758 17.5293 14.7715L9.42382 25.5137L1.31836 14.7715C0.430344 13.5946 9.53674e-06 11.5141 9.53674e-06 9.93751C-1.14441e-05 4.73286 4.2192 0.513672 9.42382 0.513672ZM9.42382 5.97173C7.23391 5.97173 5.45807 7.74759 5.45807 9.93748C5.45807 12.1274 7.23391 13.9033 9.42382 13.9033C11.6137 13.9033 13.3896 12.1274 13.3896 9.93751C13.3896 7.74759 11.6137 5.97173 9.42382 5.97173Z" fill="#FA6E12"/>
</svg>
