<svg width="25" height="26" viewBox="0 0 25 26" fill="none" xmlns="http://www.w3.org/2000/svg">
<path d="M10.3918 15.1128C11.9242 16.7003 13.7784 17.9259 15.8241 18.7036L18.5917 16.4547C18.6737 16.397 18.771 16.3661 18.8706 16.3661C18.9703 16.3661 19.0675 16.397 19.1496 16.4547L24.2883 19.8355C24.4834 19.9553 24.6485 20.1197 24.7707 20.3159C24.8928 20.512 24.9687 20.7344 24.9922 20.9657C25.0157 21.1969 24.9862 21.4305 24.9061 21.648C24.826 21.8656 24.6974 22.0612 24.5306 22.2193L22.1227 24.6481C21.7779 24.996 21.3541 25.2514 20.8891 25.3913C20.4241 25.5313 19.9324 25.5515 19.4579 25.4502C14.7246 24.4519 10.3618 22.114 6.86809 18.7036C3.45194 15.2592 1.08798 10.8766 0.0629753 6.0873C-0.038282 5.61027 -0.0171482 5.11461 0.124329 4.64837C0.265805 4.18213 0.522828 3.76111 0.870486 3.42612L3.36643 0.967338C3.52088 0.805259 3.70924 0.680961 3.91741 0.603752C4.12557 0.526542 4.34814 0.498422 4.56845 0.521496C4.78877 0.54457 5.00112 0.618241 5.1896 0.736993C5.37808 0.855744 5.53781 1.0165 5.65683 1.20722L9.07774 6.38715C9.13674 6.46849 9.16859 6.56704 9.16859 6.66826C9.16859 6.76949 9.13674 6.86804 9.07774 6.94938L6.82405 9.7155C7.60629 11.7627 8.82501 13.6064 10.3918 15.1128Z" fill="#FA6E12"/>
</svg>
